<svg height="512" width="512" xmlns="http://www.w3.org/2000/svg"><rect id="backgroundrect" width="100%" height="100%" x="0" y="0" fill="none" stroke="none"/><g class="currentLayer" style=""><title>Layer 1</title><path d="m443.738281 187.835938-21.246093 21.210937 32 31.953125h-58.789063c-3.609375-63.652344-30.144531-122.992188-75.648437-168.441406-17.777344-17.75-37.683594-32.597656-59.125-44.339844l-31.398438 69.019531c50.417969 29.617188 85.546875 82.5 90.523438 143.761719h-117.644532v-156.824219c.019532.003907.039063.011719.058594.019531l31.304688-68.824218c-16.582032-6.6875-33.867188-11.648438-51.632813-14.785156-23.128906-4.082032-44.347656 13.675781-44.347656 37.128906 0 18.234375 13.0625 33.886718 31.035156 37.089844 1.183594.210937 2.363281.441406 3.539063.675781v165.519531h-30.964844l-20.53125-39.484375h-120.871094l28.328125 54.484375-28.328125 54.484375h120.871094l20.53125-39.484375h30.964844v165.515625c-1.175782.234375-2.355469.460937-3.542969.671875-17.964844 3.210938-31.035157 18.863281-31.035157 37.089844 0 21.183594 17.304688 37.722656 37.6875 37.722656 2.191407 0 4.425782-.191406 6.667969-.589844 17.738281-3.132812 34.980469-8.070312 51.527344-14.742187l-31.261719-68.714844v-156.953125h117.644532c-4.976563 61.300781-40.140626 114.210938-90.621094 143.820312l31.386718 69.019532c21.480469-11.742188 41.429688-26.621094 59.234376-44.402344 45.503906-45.445312 72.039062-104.789062 75.648437-168.4375h58.789063l-31.996094 31.949219 21.242187 21.214843 68.261719-68.164062zm0 0" id="svg_1" class="selected" fill="#ffffff" fill-opacity="1"/></g></svg>